<svg id="visual" viewBox="0 0 900 600" width="900" height="600" xmlns="http://www.w3.org/2000/svg" xmlns:xlink="http://www.w3.org/1999/xlink" version="1.1"><rect x="0" y="0" width="900" height="600" fill="#FFFFFF"></rect><path d="M0 400L21.5 406C43 412 86 424 128.8 421.3C171.7 418.7 214.3 401.3 257.2 398.2C300 395 343 406 385.8 401C428.7 396 471.3 375 514.2 368C557 361 600 368 642.8 380.7C685.7 393.3 728.3 411.7 771.2 422C814 432.3 857 434.7 878.5 435.8L900 437L900 601L878.5 601C857 601 814 601 771.2 601C728.3 601 685.7 601 642.8 601C600 601 557 601 514.2 601C471.3 601 428.7 601 385.8 601C343 601 300 601 257.2 601C214.3 601 171.7 601 128.8 601C86 601 43 601 21.5 601L0 601Z" fill="#05264e"></path><path d="M0 412L21.5 410.7C43 409.3 86 406.7 128.8 413.7C171.7 420.7 214.3 437.3 257.2 436.5C300 435.7 343 417.3 385.8 412.7C428.7 408 471.3 417 514.2 416.2C557 415.3 600 404.7 642.8 405.2C685.7 405.7 728.3 417.3 771.2 426.7C814 436 857 443 878.5 446.5L900 450L900 601L878.5 601C857 601 814 601 771.2 601C728.3 601 685.7 601 642.8 601C600 601 557 601 514.2 601C471.3 601 428.7 601 385.8 601C343 601 300 601 257.2 601C214.3 601 171.7 601 128.8 601C86 601 43 601 21.5 601L0 601Z" fill="#003776"></path><path d="M0 473L21.5 469.5C43 466 86 459 128.8 461.7C171.7 464.3 214.3 476.7 257.2 485.7C300 494.7 343 500.3 385.8 493C428.7 485.7 471.3 465.3 514.2 464.7C557 464 600 483 642.8 489.5C685.7 496 728.3 490 771.2 485.8C814 481.7 857 479.3 878.5 478.2L900 477L900 601L878.5 601C857 601 814 601 771.2 601C728.3 601 685.7 601 642.8 601C600 601 557 601 514.2 601C471.3 601 428.7 601 385.8 601C343 601 300 601 257.2 601C214.3 601 171.7 601 128.8 601C86 601 43 601 21.5 601L0 601Z" fill="#00479f"></path><path d="M0 531L21.5 530.5C43 530 86 529 128.8 526.7C171.7 524.3 214.3 520.7 257.2 520.5C300 520.3 343 523.7 385.8 522C428.7 520.3 471.3 513.7 514.2 512.8C557 512 600 517 642.8 514.7C685.7 512.3 728.3 502.7 771.2 498.3C814 494 857 495 878.5 495.5L900 496L900 601L878.5 601C857 601 814 601 771.2 601C728.3 601 685.7 601 642.8 601C600 601 557 601 514.2 601C471.3 601 428.7 601 385.8 601C343 601 300 601 257.2 601C214.3 601 171.7 601 128.8 601C86 601 43 601 21.5 601L0 601Z" fill="#1b56ca"></path><path d="M0 526L21.5 526.3C43 526.7 86 527.3 128.8 530C171.7 532.7 214.3 537.3 257.2 543.3C300 549.3 343 556.7 385.8 558.3C428.7 560 471.3 556 514.2 550C557 544 600 536 642.8 533.5C685.7 531 728.3 534 771.2 534C814 534 857 531 878.5 529.5L900 528L900 601L878.5 601C857 601 814 601 771.2 601C728.3 601 685.7 601 642.8 601C600 601 557 601 514.2 601C471.3 601 428.7 601 385.8 601C343 601 300 601 257.2 601C214.3 601 171.7 601 128.8 601C86 601 43 601 21.5 601L0 601Z" fill="#3c65f5"></path></svg>